<svg width="26" height="26" viewBox="0 0 50 50" fill="#FF5C00" xmlns="http://www.w3.org/2000/svg">
<g id="material-symbols:paragliding-outline" clip-path="url(#clip0_348_576)">
<path id="Vector" d="M25 35.4167C23.8542 35.4167 22.8729 35.0083 22.0562 34.1917C21.2396 33.375 20.8319 32.3944 20.8333 31.25C20.8333 30.1042 21.2417 29.1229 22.0583 28.3063C22.875 27.4896 23.8555 27.0819 25 27.0833C26.1458 27.0833 27.1271 27.4917 27.9437 28.3083C28.7604 29.125 29.168 30.1056 29.1667 31.25C29.1667 32.3958 28.7583 33.3771 27.9417 34.1937C27.125 35.0104 26.1444 35.4181 25 35.4167ZM18.75 50V42.5C15.7986 41.4931 13.6715 39.7833 12.3687 37.3708C11.066 34.9583 10.4153 32.2236 10.4167 29.1667H14.5833C14.5833 32.6736 15.4687 35.2868 17.2396 37.0062C19.0104 38.7257 21.5972 39.5847 25 39.5833C28.4028 39.5833 30.9896 38.7236 32.7604 37.0042C34.5312 35.2847 35.4167 32.6722 35.4167 29.1667H37.5H39.5833C39.5833 32.2222 38.9319 34.9569 37.6292 37.3708C36.3264 39.7847 34.2 41.4944 31.25 42.5V50H18.75ZM10.4167 27.0833L6.24999 17.2917C6.07638 17.3958 5.78124 17.5785 5.36457 17.8396C4.9479 18.1007 4.5486 18.2306 4.16665 18.2292C3.57638 18.2292 3.08124 18.0292 2.68124 17.6292C2.28124 17.2292 2.08193 16.7347 2.08332 16.1458V8.85417C2.08332 6.38889 4.3229 4.29653 8.80207 2.57709C13.2812 0.857641 18.6805 -0.00138721 25 1.68146e-06C31.3194 1.68146e-06 36.7187 0.859724 41.1979 2.57917C45.6771 4.29861 47.9167 6.39028 47.9167 8.85417V16.1458C47.9167 16.7361 47.7167 17.2313 47.3167 17.6313C46.9167 18.0313 46.4222 18.2306 45.8333 18.2292C45.4514 18.2292 45.0521 18.0986 44.6354 17.8375C44.2187 17.5764 43.9236 17.3944 43.75 17.2917L39.5833 27.0833H35.4167L32.2917 14.0104C31.1458 13.8368 29.9653 13.7153 28.75 13.6458C27.5347 13.5764 26.2847 13.5417 25 13.5417C23.7153 13.5417 22.4653 13.5764 21.25 13.6458C20.0347 13.7153 18.8542 13.8368 17.7083 14.0104L14.5833 27.0833H10.4167ZM12.2396 23.4375L14.375 14.5313C13.4028 14.7396 12.4826 14.9653 11.6146 15.2083C10.7465 15.4514 9.91318 15.7292 9.11457 16.0417L12.2396 23.4375ZM37.7604 23.3854L40.8854 16.0417C40.0868 15.7292 39.2535 15.4514 38.3854 15.2083C37.5173 14.9653 36.5972 14.7396 35.625 14.5313L37.7604 23.3854ZM6.24999 12.6563C8.71526 11.6146 11.5542 10.8069 14.7667 10.2333C17.9792 9.65972 21.3903 9.37361 25 9.375C28.6111 9.375 32.0229 9.66181 35.2354 10.2354C38.4479 10.809 41.2861 11.6153 43.75 12.6542V8.95833C43.5764 8.61111 43.0465 8.16806 42.1604 7.62917C41.2743 7.09028 40.0423 6.56111 38.4646 6.04167C36.884 5.52083 34.9743 5.07778 32.7354 4.7125C30.4965 4.34722 27.918 4.16528 25 4.16667C22.0833 4.16667 19.5048 4.34931 17.2646 4.71458C15.0243 5.07986 13.1146 5.52222 11.5354 6.04167C9.95624 6.5625 8.7236 7.09236 7.83749 7.63125C6.95138 8.17014 6.42221 8.6125 6.24999 8.95833V12.6563Z" fill="#FF5C00"/>
<circle id="Ellipse 38" cx="37.5" cy="30.5" r="2.5" fill="#FF5C00"/>
<circle id="Ellipse 39" cx="12.5" cy="30.5" r="2.5" fill="#FF5C00"/>
</g>
<defs>
<clipPath id="clip0_348_576">
<rect width="50" height="50" fill="white"/>
</clipPath>
</defs>
</svg>
