<svg width="50" height="50" viewBox="0 0 50 50" fill="none" xmlns="http://www.w3.org/2000/svg">
<g id="Camera 1">
<path id="Vector" d="M25 36.1458C27.5 36.1458 29.6007 35.2951 31.3021 33.5937C33.0035 31.8924 33.8542 29.7743 33.8542 27.2396C33.8542 24.7396 33.0035 22.6476 31.3021 20.9635C29.6007 19.2795 27.5 18.4375 25 18.4375C22.4653 18.4375 20.3559 19.2795 18.6719 20.9635C16.9878 22.6476 16.1458 24.7396 16.1458 27.2396C16.1458 29.7743 16.9878 31.8924 18.6719 33.5937C20.3559 35.2951 22.4653 36.1458 25 36.1458ZM25 33.0208C23.3333 33.0208 21.9618 32.474 20.8854 31.3802C19.809 30.2865 19.2708 28.9062 19.2708 27.2396C19.2708 25.6076 19.809 24.2535 20.8854 23.1771C21.9618 22.1007 23.3333 21.5625 25 21.5625C26.6319 21.5625 27.9948 22.1007 29.0885 23.1771C30.1823 24.2535 30.7292 25.6076 30.7292 27.2396C30.7292 28.9062 30.1823 30.2865 29.0885 31.3802C27.9948 32.474 26.6319 33.0208 25 33.0208ZM7.29166 43.75C6.45832 43.75 5.72916 43.4375 5.10416 42.8125C4.47916 42.1875 4.16666 41.4583 4.16666 40.625V13.9063C4.16666 13.1076 4.47916 12.3872 5.10416 11.7448C5.72916 11.1024 6.45832 10.7813 7.29166 10.7813H14.9479L18.75 6.25H31.25L35.0521 10.7813H42.7083C43.5069 10.7813 44.2274 11.1024 44.8698 11.7448C45.5121 12.3872 45.8333 13.1076 45.8333 13.9063V40.625C45.8333 41.4583 45.5121 42.1875 44.8698 42.8125C44.2274 43.4375 43.5069 43.75 42.7083 43.75H7.29166ZM42.7083 40.625V13.9063H33.5937L29.7917 9.375H20.2083L16.4062 13.9063H7.29166V40.625H42.7083Z" fill="black"/>
</g>
</svg>
