<svg width="114" height="114" viewBox="0 0 114 114" fill="none" xmlns="http://www.w3.org/2000/svg">
<circle cx="57" cy="57" r="57" fill="#FF5C00"/>
<g filter="url(#filter0_d_477_729)">
<rect x="23" y="23" width="32" height="32" rx="8" fill="white"/>
</g>
<g filter="url(#filter1_d_477_729)">
<rect x="23" y="58" width="32" height="32" rx="8" fill="white"/>
</g>
<g filter="url(#filter2_d_477_729)">
<rect x="58" y="23" width="32" height="32" rx="8" fill="white"/>
</g>
<g filter="url(#filter3_d_477_729)">
<rect x="58" y="58" width="32" height="32" rx="8" fill="white"/>
</g>
<path d="M43.7617 39.1215C44.159 39.1262 44.5533 39.0551 44.9213 38.9125C45.2893 38.7698 45.6236 38.5585 45.9043 38.2909L48.7115 35.6198C48.8963 35.443 49 35.2037 49 34.9544C49 34.705 48.8963 34.4658 48.7115 34.289C48.6193 34.2005 48.5096 34.1303 48.3887 34.0824C48.2679 34.0345 48.1382 34.0098 48.0073 34.0098C47.8763 34.0098 47.7467 34.0345 47.6258 34.0824C47.5049 34.1303 47.3952 34.2005 47.303 34.289L44.466 36.9507C44.3738 37.0391 44.2641 37.1093 44.1432 37.1573C44.0223 37.2052 43.8927 37.2298 43.7617 37.2298C43.6308 37.2298 43.5011 37.2052 43.3802 37.1573C43.2594 37.1093 43.1496 37.0391 43.0574 36.9507L46.5689 33.6188C46.6614 33.5308 46.7348 33.4264 46.7848 33.3114C46.8349 33.1964 46.8607 33.0732 46.8607 32.9487C46.8607 32.8242 46.8349 32.701 46.7848 32.586C46.7348 32.471 46.6614 32.3666 46.5689 32.2786C46.4764 32.1906 46.3666 32.1207 46.2458 32.0731C46.125 32.0255 45.9954 32.001 45.8646 32.001C45.7339 32.001 45.6043 32.0255 45.4835 32.0731C45.3626 32.1207 45.2529 32.1906 45.1604 32.2786L41.6588 35.6198C41.474 35.443 41.3703 35.2037 41.3703 34.9544C41.3703 34.705 41.474 34.4658 41.6588 34.289L44.466 31.6179C44.5585 31.5299 44.6319 31.4254 44.6819 31.3104C44.732 31.1954 44.7577 31.0722 44.7577 30.9477C44.7577 30.8233 44.732 30.7 44.6819 30.585C44.6319 30.4701 44.5585 30.3656 44.466 30.2776C44.3735 30.1896 44.2637 30.1198 44.1429 30.0721C44.022 30.0245 43.8925 30 43.7617 30C43.6309 30 43.5014 30.0245 43.3806 30.0721C43.2597 30.1198 43.1499 30.1896 43.0574 30.2776L40.2502 32.9487C39.6929 33.4796 39.3799 34.1993 39.3799 34.9497C39.3799 35.7 39.6929 36.4197 40.2502 36.9507L38.9607 38.1682L30.7572 30.3342L30.658 30.2776C30.6073 30.2355 30.5505 30.2005 30.4894 30.1738L30.3109 30.1077L30.1918 30.0322H30.1224H29.924C29.8649 30.0232 29.8046 30.0232 29.7454 30.0322C29.6854 30.053 29.6286 30.0816 29.5768 30.1171L29.4181 30.2115H29.3487L29.2891 30.3059C29.2472 30.3557 29.2106 30.4095 29.18 30.4664C29.151 30.5239 29.1277 30.584 29.1106 30.6457C29.1106 30.6457 29.1106 30.7118 29.1106 30.7495C28.8699 32.346 29.0234 33.9738 29.5588 35.504C30.0943 37.0342 30.9971 38.4247 32.1956 39.5651L34.8143 42.0475L29.4479 47.1443C29.3549 47.2321 29.2811 47.3365 29.2307 47.4515C29.1804 47.5665 29.1544 47.6899 29.1544 47.8145C29.1544 47.9391 29.1804 48.0624 29.2307 48.1774C29.2811 48.2925 29.3549 48.3969 29.4479 48.4846C29.5405 48.5721 29.6505 48.6413 29.7713 48.6883C29.8922 48.7352 30.0216 48.759 30.1521 48.7583C30.2827 48.759 30.4121 48.7352 30.533 48.6883C30.6538 48.6413 30.7637 48.5721 30.8564 48.4846L36.8776 42.8403L39.6848 40.1692L41.6687 38.2815C42.2222 38.8138 42.9748 39.1159 43.7617 39.1215ZM36.1733 40.8393L33.5645 38.3476C32.1345 36.9683 31.2392 35.168 31.0251 33.2413L37.5819 39.4708L36.1733 40.8393ZM42.3631 41.3773C42.1763 41.1984 41.9224 41.0973 41.6573 41.0964C41.3922 41.0955 41.1376 41.1949 40.9495 41.3726C40.7614 41.5504 40.6552 41.7919 40.6543 42.0441C40.6534 42.2964 40.7578 42.5386 40.9446 42.7176L47.1939 48.6639C47.3833 48.828 47.6322 48.9159 47.8882 48.9093C48.0188 48.91 48.1482 48.8862 48.269 48.8393C48.3899 48.7923 48.4998 48.7231 48.5925 48.6356C48.6855 48.5479 48.7593 48.4435 48.8096 48.3285C48.86 48.2134 48.8859 48.0901 48.8859 47.9655C48.8859 47.8409 48.86 47.7175 48.8096 47.6025C48.7593 47.4875 48.6855 47.3831 48.5925 47.2953L42.3631 41.3773Z" fill="#FF5C00"/>
<path d="M83.6557 35.1875C83.4787 35.0277 83.2508 34.9276 83.0076 34.9028C82.6489 33.9409 81.9328 33.1351 80.9927 32.6356C80.0525 32.1361 78.9524 31.977 77.8973 32.1878C77.5147 31.5256 76.9507 30.973 76.2645 30.5881C75.5783 30.2031 74.7952 30 73.9973 30C73.1995 30 72.4164 30.2031 71.7302 30.5881C71.0439 30.973 70.4799 31.5256 70.0973 32.1878C69.0423 31.977 67.9422 32.1361 67.002 32.6356C66.0618 33.1351 65.3457 33.9409 64.9871 34.9028C64.831 34.9194 64.6803 34.9671 64.5451 35.0428C64.4099 35.1185 64.2932 35.2205 64.2027 35.342C64.1122 35.4635 64.05 35.6018 64.0202 35.7477C63.9904 35.8936 63.9936 36.0439 64.0297 36.1885L66.8584 47.5592C66.9528 47.9441 67.1825 48.2874 67.51 48.5327C67.8375 48.778 68.2434 48.911 68.6612 48.9097H79.339C79.7568 48.911 80.1627 48.778 80.4902 48.5327C80.8177 48.2874 81.0474 47.9441 81.1418 47.5592L83.9705 36.1885C84.0148 36.0102 84.0091 35.824 83.9539 35.6484C83.8987 35.4728 83.7959 35.3139 83.6557 35.1875ZM69.1853 34.196C69.5479 34.1949 69.9052 34.2789 70.2251 34.4404C70.3763 34.5164 70.5441 34.5584 70.7153 34.563C70.8865 34.5676 71.0565 34.5347 71.212 34.4669C71.3675 34.399 71.5044 34.2981 71.6119 34.172C71.7193 34.0458 71.7945 33.8979 71.8316 33.7397C71.9419 33.2736 72.2168 32.857 72.611 32.5584C73.0052 32.2598 73.4951 32.0971 74.0001 32.0971C74.5051 32.0971 74.995 32.2598 75.3892 32.5584C75.7834 32.857 76.0583 33.2736 76.1686 33.7397C76.2057 33.8979 76.2809 34.0458 76.3883 34.172C76.4958 34.2981 76.6327 34.399 76.7882 34.4669C76.9437 34.5347 77.1137 34.5676 77.2849 34.563C77.4561 34.5584 77.6239 34.5164 77.7751 34.4404C78.095 34.2789 78.4523 34.1949 78.8149 34.196C79.2385 34.1957 79.6534 34.3098 80.0107 34.525C80.368 34.7402 80.6528 35.0476 80.8316 35.4108L77.764 36.2393L74.6881 35.0762C74.2466 34.9081 73.7536 34.9081 73.3121 35.0762L70.2362 36.2393L67.1686 35.4108C67.3474 35.0476 67.6322 34.7402 67.9895 34.525C68.3468 34.3098 68.7617 34.1957 69.1853 34.196ZM71.5121 38.0207L74.0001 37.0792L76.4881 38.0207L75.2492 46.8077H72.7492L71.5121 38.0207ZM66.626 37.4506L69.2908 38.1705L70.5084 46.8077H68.9538L66.626 37.4506ZM79.0464 46.8077H77.4918L78.7094 38.1705L81.3742 37.4506L79.0464 46.8077Z" fill="#FF5C00"/>
<path d="M41.5 82.75H39.625C39.2936 82.7497 38.9758 82.6179 38.7415 82.3835C38.5071 82.1492 38.3753 81.8314 38.375 81.5V78.375H39.625V81.5H41.5V78.375H42.75V75.875C42.7498 75.7093 42.6839 75.5504 42.5668 75.4332C42.4496 75.3161 42.2907 75.2502 42.125 75.25H36.675L35.425 71.5H31.5C31.3343 71.5002 31.1754 71.5661 31.0582 71.6832C30.9411 71.8004 30.8752 71.9593 30.875 72.125V75.875H32.125V81.5H34.625V77.125H35.875V81.5C35.8747 81.8314 35.7429 82.1492 35.5085 82.3835C35.2742 82.6179 34.9564 82.7497 34.625 82.75H32.125C31.7936 82.7497 31.4758 82.6179 31.2415 82.3835C31.0071 82.1492 30.8753 81.8314 30.875 81.5V77.125C30.5436 77.1247 30.2258 76.9929 29.9915 76.7585C29.7571 76.5242 29.6253 76.2064 29.625 75.875V72.125C29.6255 71.6279 29.8232 71.1512 30.1747 70.7997C30.5262 70.4482 31.0029 70.2505 31.5 70.25H35.425C35.6873 70.2498 35.943 70.3323 36.1558 70.4856C36.3687 70.639 36.5278 70.8555 36.6106 71.1044L37.575 74H42.125C42.6221 74.0005 43.0988 74.1982 43.4503 74.5497C43.8018 74.9012 43.9995 75.3779 44 75.875V78.375C43.9997 78.7064 43.8679 79.0242 43.6335 79.2585C43.3992 79.4929 43.0814 79.6247 42.75 79.625V81.5C42.7497 81.8314 42.6179 82.1492 42.3835 82.3835C42.1492 82.6179 41.8314 82.7497 41.5 82.75ZM46.5 82.75H45.25V75.875H47.125V72.125C47.1248 71.9593 47.0589 71.8004 46.9418 71.6832C46.8246 71.5661 46.6657 71.5002 46.5 71.5H44V70.25H46.5C46.9971 70.2505 47.4738 70.4482 47.8253 70.7997C48.1768 71.1512 48.3745 71.6279 48.375 72.125V75.875C48.3747 76.2064 48.2429 76.5242 48.0085 76.7585C47.7742 76.9929 47.4564 77.1247 47.125 77.125H46.5V82.75ZM33.375 69.625C32.8805 69.625 32.3972 69.4784 31.9861 69.2037C31.575 68.929 31.2545 68.5385 31.0653 68.0817C30.8761 67.6249 30.8266 67.1222 30.923 66.6373C31.0195 66.1523 31.2576 65.7069 31.6072 65.3572C31.9569 65.0076 32.4023 64.7695 32.8873 64.673C33.3722 64.5766 33.8749 64.6261 34.3317 64.8153C34.7885 65.0045 35.179 65.325 35.4537 65.7361C35.7284 66.1472 35.875 66.6305 35.875 67.125C35.8742 67.7878 35.6105 68.4232 35.1419 68.8919C34.6732 69.3605 34.0378 69.6242 33.375 69.625ZM33.375 65.875C33.1278 65.875 32.8861 65.9483 32.6805 66.0857C32.475 66.223 32.3148 66.4182 32.2202 66.6466C32.1255 66.8751 32.1008 67.1264 32.149 67.3689C32.1972 67.6113 32.3163 67.8341 32.4911 68.0089C32.6659 68.1837 32.8887 68.3028 33.1311 68.351C33.3736 68.3992 33.6249 68.3745 33.8534 68.2799C34.0818 68.1852 34.277 68.025 34.4143 67.8195C34.5517 67.6139 34.625 67.3722 34.625 67.125C34.6247 66.7936 34.4929 66.4758 34.2585 66.2415C34.0242 66.0071 33.7064 65.8753 33.375 65.875ZM44.625 69.625C44.1305 69.625 43.6472 69.4784 43.2361 69.2037C42.825 68.929 42.5045 68.5385 42.3153 68.0817C42.1261 67.6249 42.0766 67.1222 42.173 66.6373C42.2695 66.1523 42.5076 65.7069 42.8572 65.3572C43.2069 65.0076 43.6523 64.7695 44.1373 64.673C44.6222 64.5766 45.1249 64.6261 45.5817 64.8153C46.0385 65.0045 46.429 65.325 46.7037 65.7361C46.9784 66.1472 47.125 66.6305 47.125 67.125C47.1242 67.7878 46.8605 68.4232 46.3919 68.8919C45.9232 69.3605 45.2878 69.6242 44.625 69.625ZM44.625 65.875C44.3778 65.875 44.1361 65.9483 43.9305 66.0857C43.725 66.223 43.5648 66.4182 43.4701 66.6466C43.3755 66.8751 43.3508 67.1264 43.399 67.3689C43.4472 67.6113 43.5663 67.8341 43.7411 68.0089C43.9159 68.1837 44.1387 68.3028 44.3811 68.351C44.6236 68.3992 44.8749 68.3745 45.1034 68.2799C45.3318 68.1852 45.527 68.025 45.6643 67.8195C45.8017 67.6139 45.875 67.3722 45.875 67.125C45.8747 66.7936 45.7429 66.4758 45.5085 66.2415C45.2742 66.0071 44.9564 65.8753 44.625 65.875Z" fill="#FF5C00"/>
<path d="M40.5625 73.375C40.1299 73.375 39.7069 73.2467 39.3472 73.0063C38.9875 72.766 38.7071 72.4243 38.5415 72.0246C38.3759 71.6249 38.3326 71.1851 38.417 70.7607C38.5014 70.3364 38.7098 69.9466 39.0157 69.6407C39.3216 69.3348 39.7114 69.1264 40.1357 69.042C40.5601 68.9576 40.9999 69.0009 41.3996 69.1665C41.7993 69.3321 42.141 69.6125 42.3813 69.9722C42.6217 70.3319 42.75 70.7549 42.75 71.1875C42.7493 71.7675 42.5187 72.3235 42.1086 72.7336C41.6985 73.1437 41.1425 73.3743 40.5625 73.375ZM40.5625 70.25C40.3771 70.25 40.1958 70.305 40.0417 70.408C39.8875 70.511 39.7673 70.6574 39.6964 70.8287C39.6254 71 39.6068 71.1885 39.643 71.3704C39.6792 71.5523 39.7685 71.7193 39.8996 71.8504C40.0307 71.9815 40.1977 72.0708 40.3796 72.107C40.5615 72.1432 40.75 72.1246 40.9213 72.0536C41.0926 71.9827 41.239 71.8625 41.342 71.7083C41.445 71.5542 41.5 71.3729 41.5 71.1875C41.4997 70.939 41.4008 70.7007 41.225 70.525C41.0493 70.3492 40.811 70.2503 40.5625 70.25Z" fill="#FF5C00"/>
<path d="M74 77.612C73.5 77.612 73.0718 77.4436 72.7155 77.1066C72.3591 76.7697 72.1812 76.3651 72.1818 75.893C72.1818 75.4202 72.36 75.0154 72.7164 74.6784C73.0727 74.3415 73.5006 74.1733 74 74.1739C74.5 74.1739 74.9282 74.3424 75.2845 74.6793C75.6409 75.0162 75.8188 75.4208 75.8182 75.893C75.8182 76.3657 75.64 76.7705 75.2836 77.1075C74.9273 77.4444 74.4994 77.6126 74 77.612ZM71.2727 83.6287V80.5344C69.9849 80.119 69.0567 79.4136 68.4882 78.4183C67.9197 77.4229 67.6358 76.2946 67.6364 75.0334H69.4545C69.4545 76.4803 69.8409 77.5584 70.6136 78.2678C71.3864 78.9772 72.5152 79.3317 74 79.3311C75.4848 79.3311 76.6136 78.9764 77.3864 78.267C78.1591 77.5576 78.5455 76.4797 78.5455 75.0334H79.4545H80.3636C80.3636 76.2941 80.0794 77.4223 79.5109 78.4183C78.9424 79.4142 78.0145 80.1196 76.7273 80.5344V83.6287H71.2727ZM67.6364 74.1739L65.8182 70.1341C65.7424 70.1771 65.6136 70.2524 65.4318 70.3602C65.25 70.4679 65.0758 70.5215 64.9091 70.5209C64.6515 70.5209 64.4355 70.4384 64.2609 70.2733C64.0864 70.1083 63.9994 69.9043 64 69.6614V66.653C64 65.6359 64.9773 64.7726 66.9318 64.0632C68.8864 63.3538 71.2424 62.9994 74 63C76.7576 63 79.1136 63.3547 81.0682 64.0641C83.0227 64.7735 84 65.6365 84 66.653V69.6614C84 69.9049 83.9127 70.1092 83.7382 70.2742C83.5636 70.4392 83.3479 70.5215 83.0909 70.5209C82.9242 70.5209 82.75 70.467 82.5682 70.3593C82.3864 70.2516 82.2576 70.1765 82.1818 70.1341L80.3636 74.1739H78.5455L77.1818 68.7803C76.6818 68.7087 76.1667 68.6586 75.6364 68.6299C75.1061 68.6013 74.5606 68.5869 74 68.5869C73.4394 68.5869 72.8939 68.6013 72.3636 68.6299C71.8333 68.6586 71.3182 68.7087 70.8182 68.7803L69.4545 74.1739H67.6364ZM68.4318 72.6697L69.3636 68.9952C68.9394 69.0812 68.5379 69.1743 68.1591 69.2746C67.7803 69.3749 67.4167 69.4895 67.0682 69.6184L68.4318 72.6697ZM79.5682 72.6482L80.9318 69.6184C80.5833 69.4895 80.2197 69.3749 79.8409 69.2746C79.4621 69.1743 79.0606 69.0812 78.6364 68.9952L79.5682 72.6482ZM65.8182 68.2216C66.8939 67.7919 68.1327 67.4587 69.5345 67.222C70.9364 66.9854 72.4249 66.8673 74 66.8679C75.5758 66.8679 77.0645 66.9862 78.4664 67.2229C79.8682 67.4595 81.1067 67.7922 82.1818 68.2208V66.696C82.1061 66.5527 81.8748 66.3699 81.4882 66.1476C81.1015 65.9253 80.5639 65.7069 79.8755 65.4926C79.1858 65.2778 78.3524 65.095 77.3755 64.9443C76.3985 64.7936 75.2733 64.7185 74 64.7191C72.7273 64.7191 71.6021 64.7944 70.6245 64.9451C69.647 65.0958 68.8136 65.2783 68.1245 65.4926C67.4355 65.7075 66.8976 65.9261 66.5109 66.1485C66.1242 66.3708 65.8933 66.5533 65.8182 66.696V68.2216Z" fill="#FF5C00"/>
<defs>
<filter id="filter0_d_477_729" x="19" y="23" width="40" height="40" filterUnits="userSpaceOnUse" color-interpolation-filters="sRGB">
<feFlood flood-opacity="0" result="BackgroundImageFix"/>
<feColorMatrix in="SourceAlpha" type="matrix" values="0 0 0 0 0 0 0 0 0 0 0 0 0 0 0 0 0 0 127 0" result="hardAlpha"/>
<feOffset dy="4"/>
<feGaussianBlur stdDeviation="2"/>
<feComposite in2="hardAlpha" operator="out"/>
<feColorMatrix type="matrix" values="0 0 0 0 0 0 0 0 0 0 0 0 0 0 0 0 0 0 0.25 0"/>
<feBlend mode="normal" in2="BackgroundImageFix" result="effect1_dropShadow_477_729"/>
<feBlend mode="normal" in="SourceGraphic" in2="effect1_dropShadow_477_729" result="shape"/>
</filter>
<filter id="filter1_d_477_729" x="19" y="58" width="40" height="40" filterUnits="userSpaceOnUse" color-interpolation-filters="sRGB">
<feFlood flood-opacity="0" result="BackgroundImageFix"/>
<feColorMatrix in="SourceAlpha" type="matrix" values="0 0 0 0 0 0 0 0 0 0 0 0 0 0 0 0 0 0 127 0" result="hardAlpha"/>
<feOffset dy="4"/>
<feGaussianBlur stdDeviation="2"/>
<feComposite in2="hardAlpha" operator="out"/>
<feColorMatrix type="matrix" values="0 0 0 0 0 0 0 0 0 0 0 0 0 0 0 0 0 0 0.25 0"/>
<feBlend mode="normal" in2="BackgroundImageFix" result="effect1_dropShadow_477_729"/>
<feBlend mode="normal" in="SourceGraphic" in2="effect1_dropShadow_477_729" result="shape"/>
</filter>
<filter id="filter2_d_477_729" x="54" y="23" width="40" height="40" filterUnits="userSpaceOnUse" color-interpolation-filters="sRGB">
<feFlood flood-opacity="0" result="BackgroundImageFix"/>
<feColorMatrix in="SourceAlpha" type="matrix" values="0 0 0 0 0 0 0 0 0 0 0 0 0 0 0 0 0 0 127 0" result="hardAlpha"/>
<feOffset dy="4"/>
<feGaussianBlur stdDeviation="2"/>
<feComposite in2="hardAlpha" operator="out"/>
<feColorMatrix type="matrix" values="0 0 0 0 0 0 0 0 0 0 0 0 0 0 0 0 0 0 0.25 0"/>
<feBlend mode="normal" in2="BackgroundImageFix" result="effect1_dropShadow_477_729"/>
<feBlend mode="normal" in="SourceGraphic" in2="effect1_dropShadow_477_729" result="shape"/>
</filter>
<filter id="filter3_d_477_729" x="54" y="58" width="40" height="40" filterUnits="userSpaceOnUse" color-interpolation-filters="sRGB">
<feFlood flood-opacity="0" result="BackgroundImageFix"/>
<feColorMatrix in="SourceAlpha" type="matrix" values="0 0 0 0 0 0 0 0 0 0 0 0 0 0 0 0 0 0 127 0" result="hardAlpha"/>
<feOffset dy="4"/>
<feGaussianBlur stdDeviation="2"/>
<feComposite in2="hardAlpha" operator="out"/>
<feColorMatrix type="matrix" values="0 0 0 0 0 0 0 0 0 0 0 0 0 0 0 0 0 0 0.25 0"/>
<feBlend mode="normal" in2="BackgroundImageFix" result="effect1_dropShadow_477_729"/>
<feBlend mode="normal" in="SourceGraphic" in2="effect1_dropShadow_477_729" result="shape"/>
</filter>
</defs>
</svg>
