<svg width="26" height="26" viewBox="0 0 52 52" fill="#FF5C00" xmlns="http://www.w3.org/2000/svg">
<g id="uil:book-open">
<path id="Vector" d="M45.8683 4.46331C44.3153 4.1958 42.7426 4.0581 41.1667 4.05165C35.7898 4.04724 30.5251 5.58905 26 8.49331C21.4633 5.62719 16.1994 4.12321 10.8333 4.15998C9.2574 4.16644 7.68475 4.30413 6.13167 4.57164C5.62295 4.65935 5.16226 4.92581 4.83256 5.32303C4.50287 5.72025 4.32583 6.22214 4.33334 6.73831V32.7383C4.3287 33.0567 4.39428 33.3721 4.52541 33.6623C4.65655 33.9524 4.85001 34.2101 5.09204 34.4169C5.33408 34.6238 5.61873 34.7748 5.92574 34.8591C6.23275 34.9435 6.55459 34.9591 6.86834 34.905C9.97321 34.3674 13.1543 34.4566 16.2241 35.1673C19.294 35.878 22.1906 37.1959 24.7433 39.0433L25.0033 39.195H25.2417C25.482 39.2951 25.7397 39.3466 26 39.3466C26.2603 39.3466 26.5181 39.2951 26.7583 39.195H26.9967L27.2567 39.0433C29.7916 37.1546 32.6799 35.794 35.7503 35.0422C38.8208 34.2904 42.0109 34.1627 45.1317 34.6666C45.4454 34.7208 45.7673 34.7052 46.0743 34.6208C46.3813 34.5364 46.6659 34.3855 46.908 34.1786C47.15 33.9717 47.3435 33.7141 47.4746 33.4239C47.6057 33.1338 47.6713 32.8183 47.6667 32.5V6.49998C47.6441 6.00631 47.4535 5.53518 47.1264 5.16474C46.7993 4.7943 46.3554 4.54681 45.8683 4.46331ZM23.8333 33.2583C19.8248 31.1495 15.3628 30.0489 10.8333 30.0516H8.66667V8.38498C9.38829 8.34339 10.1117 8.34339 10.8333 8.38498C15.4557 8.37987 19.9771 9.73631 23.8333 12.285V33.2583ZM43.3333 30.1383H41.1667C36.6372 30.1355 32.1753 31.2361 28.1667 33.345V12.285C32.0229 9.73631 36.5443 8.37987 41.1667 8.38498C41.8883 8.34339 42.6117 8.34339 43.3333 8.38498V30.1383ZM45.8683 39.13C44.3153 38.8625 42.7426 38.7248 41.1667 38.7183C35.7898 38.7139 30.5251 40.2557 26 43.16C21.475 40.2557 16.2102 38.7139 10.8333 38.7183C9.2574 38.7248 7.68475 38.8625 6.13167 39.13C5.84963 39.1747 5.57922 39.2748 5.33599 39.4244C5.09276 39.5741 4.88151 39.7703 4.71438 40.0019C4.54726 40.2334 4.42755 40.4957 4.36216 40.7737C4.29677 41.0517 4.28697 41.3399 4.33334 41.6216C4.44344 42.1843 4.77207 42.6804 5.24722 43.0012C5.72237 43.322 6.30531 43.4415 6.86834 43.3333C9.97321 42.7957 13.1543 42.8849 16.2241 43.5956C19.294 44.3064 22.1906 45.6242 24.7433 47.4716C25.1103 47.7329 25.5495 47.8733 26 47.8733C26.4505 47.8733 26.8897 47.7329 27.2567 47.4716C29.8094 45.6242 32.706 44.3064 35.7759 43.5956C38.8457 42.8849 42.0268 42.7957 45.1317 43.3333C45.6947 43.4415 46.2776 43.322 46.7528 43.0012C47.2279 42.6804 47.5566 42.1843 47.6667 41.6216C47.713 41.3399 47.7032 41.0517 47.6378 40.7737C47.5725 40.4957 47.4527 40.2334 47.2856 40.0019C47.1185 39.7703 46.9072 39.5741 46.664 39.4244C46.4208 39.2748 46.1504 39.1747 45.8683 39.13Z" fill="#FF5C00"/>
</g>
</svg>
