<svg width="26" height="26" viewBox="0 0 52 52" fill="#FF5C00" xmlns="http://www.w3.org/2000/svg">
<g id="ph:popcorn-bold">
<path id="Vector" d="M47.1819 14.4869C46.7935 14.1163 46.2937 13.8842 45.76 13.8267C44.9733 11.5958 43.4023 9.72697 41.3398 8.56848C39.2774 7.40999 36.864 7.04085 34.5495 7.52985C33.7102 5.99402 32.4729 4.71246 30.9675 3.81965C29.4621 2.92685 27.7441 2.45572 25.9939 2.45572C24.2437 2.45572 22.5257 2.92685 21.0203 3.81965C19.515 4.71246 18.2777 5.99402 17.4383 7.52985C15.1238 7.04085 12.7105 7.40999 10.648 8.56848C8.58549 9.72697 7.01453 11.5958 6.22781 13.8267C5.88528 13.8652 5.55481 13.9759 5.2582 14.1515C4.96159 14.3271 4.70559 14.5636 4.50711 14.8454C4.30862 15.1271 4.17215 15.4478 4.10672 15.7863C4.04128 16.1247 4.04837 16.4731 4.1275 16.8086L10.333 43.1803C10.54 44.0731 11.044 44.8692 11.7625 45.4382C12.481 46.0072 13.3713 46.3155 14.2878 46.3125H37.7122C38.6287 46.3155 39.5191 46.0072 40.2375 45.4382C40.956 44.8692 41.46 44.0731 41.667 43.1803L47.8725 16.8086C47.9697 16.395 47.9571 15.9631 47.836 15.5559C47.7149 15.1486 47.4894 14.7801 47.1819 14.4869ZM15.4375 12.1875C16.233 12.1849 17.0168 12.3796 17.7186 12.7542C18.0503 12.9306 18.4184 13.0279 18.7939 13.0386C19.1695 13.0492 19.5424 12.9729 19.8836 12.8156C20.2248 12.6583 20.5251 12.4242 20.7608 12.1317C20.9966 11.8391 21.1616 11.4961 21.2428 11.1292C21.4849 10.0482 22.088 9.0818 22.9527 8.38931C23.8174 7.69681 24.8922 7.31949 26 7.31949C27.1078 7.31949 28.1826 7.69681 29.0473 8.38931C29.9121 9.0818 30.5151 10.0482 30.7572 11.1292C30.8384 11.4961 31.0034 11.8391 31.2392 12.1317C31.475 12.4242 31.7752 12.6583 32.1164 12.8156C32.4576 12.9729 32.8305 13.0492 33.2061 13.0386C33.5817 13.0279 33.9497 12.9306 34.2814 12.7542C34.9832 12.3796 35.767 12.1849 36.5625 12.1875C37.4918 12.1866 38.4019 12.4514 39.1857 12.9505C39.9695 13.4497 40.5943 14.1624 40.9866 15.0048L34.257 16.9264L27.5092 14.2289C26.5409 13.8389 25.4591 13.8389 24.4908 14.2289L17.743 16.9264L11.0134 15.0048C11.4057 14.1624 12.0305 13.4497 12.8143 12.9505C13.5981 12.4514 14.5083 12.1866 15.4375 12.1875ZM20.542 21.058L26 18.8744L31.458 21.058L28.7402 41.4375H23.2558L20.542 21.058ZM9.82313 19.7356L15.6691 21.4053L18.3402 41.4375H14.9297L9.82313 19.7356ZM37.0703 41.4375H33.6599L36.3309 21.4053L42.1769 19.7356L37.0703 41.4375Z" fill="#FF5C00"/>
</g>
</svg>
