<svg width="26" height="26" viewBox="0 0 52 52" fill="#FF5C00" xmlns="http://www.w3.org/2000/svg">
<g id="carbon:pedestrian-family">
<path id="Vector" d="M32.5 48.75H27.625C26.7633 48.7491 25.9372 48.4065 25.3279 47.7971C24.7185 47.1878 24.3759 46.3617 24.375 45.5V37.375H27.625V45.5H32.5V37.375H35.75V30.875C35.7496 30.4442 35.5782 30.0311 35.2736 29.7264C34.9689 29.4218 34.5558 29.2504 34.125 29.25H19.955L16.705 19.5H6.5C6.06916 19.5004 5.65608 19.6718 5.35143 19.9764C5.04677 20.2811 4.87543 20.6942 4.875 21.125V30.875H8.125V45.5H14.625V34.125H17.875V45.5C17.8741 46.3617 17.5315 47.1878 16.9221 47.7971C16.3128 48.4065 15.4867 48.7491 14.625 48.75H8.125C7.26331 48.7491 6.43716 48.4065 5.82785 47.7971C5.21855 47.1878 4.87586 46.3617 4.875 45.5V34.125C4.01331 34.1241 3.18716 33.7815 2.57785 33.1722C1.96855 32.5628 1.62586 31.7367 1.625 30.875V21.125C1.62629 19.8325 2.14032 18.5932 3.05428 17.6793C3.96824 16.7653 5.20747 16.2513 6.5 16.25H16.705C17.387 16.2496 18.0519 16.4639 18.6052 16.8627C19.1585 17.2614 19.5722 17.8243 19.7876 18.4714L22.295 26H34.125C35.4175 26.0013 36.6568 26.5153 37.5707 27.4293C38.4847 28.3432 38.9987 29.5825 39 30.875V37.375C38.9991 38.2367 38.6565 39.0628 38.0471 39.6721C37.4378 40.2815 36.6117 40.6241 35.75 40.625V45.5C35.7491 46.3617 35.4065 47.1878 34.7971 47.7971C34.1878 48.4065 33.3617 48.7491 32.5 48.75ZM45.5 48.75H42.25V30.875H47.125V21.125C47.1246 20.6942 46.9532 20.2811 46.6486 19.9764C46.3439 19.6718 45.9308 19.5004 45.5 19.5H39V16.25H45.5C46.7925 16.2513 48.0318 16.7653 48.9457 17.6793C49.8597 18.5932 50.3737 19.8325 50.375 21.125V30.875C50.3741 31.7367 50.0315 32.5628 49.4221 33.1722C48.8128 33.7815 47.9867 34.1241 47.125 34.125H45.5V48.75ZM11.375 14.625C10.0894 14.625 8.83271 14.2438 7.76379 13.5296C6.69487 12.8153 5.86175 11.8002 5.36978 10.6124C4.87781 9.42473 4.74909 8.11779 4.9999 6.85692C5.2507 5.59604 5.86976 4.43785 6.77881 3.52881C7.68785 2.61977 8.84604 2.0007 10.1069 1.7499C11.3678 1.49909 12.6747 1.62782 13.8624 2.11979C15.0502 2.61176 16.0653 3.44488 16.7796 4.5138C17.4938 5.58272 17.875 6.83942 17.875 8.125C17.8729 9.84825 17.1873 11.5003 15.9688 12.7188C14.7503 13.9373 13.0982 14.6229 11.375 14.625ZM11.375 4.875C10.7322 4.875 10.1039 5.06561 9.5694 5.42273C9.03494 5.77984 8.61838 6.28742 8.37239 6.88128C8.12641 7.47514 8.06205 8.12861 8.18745 8.75905C8.31285 9.38948 8.62238 9.96858 9.0769 10.4231C9.53142 10.8776 10.1105 11.1872 10.741 11.3126C11.3714 11.438 12.0249 11.3736 12.6187 11.1276C13.2126 10.8816 13.7202 10.4651 14.0773 9.93061C14.4344 9.39615 14.625 8.76779 14.625 8.125C14.6241 7.26331 14.2815 6.43716 13.6721 5.82786C13.0628 5.21855 12.2367 4.87586 11.375 4.875ZM40.625 14.625C39.3394 14.625 38.0827 14.2438 37.0138 13.5296C35.9449 12.8153 35.1118 11.8002 34.6198 10.6124C34.1278 9.42473 33.9991 8.11779 34.2499 6.85692C34.5007 5.59604 35.1198 4.43785 36.0288 3.52881C36.9378 2.61977 38.096 2.0007 39.3569 1.7499C40.6178 1.49909 41.9247 1.62782 43.1124 2.11979C44.3002 2.61176 45.3153 3.44488 46.0296 4.5138C46.7438 5.58272 47.125 6.83942 47.125 8.125C47.1228 9.84825 46.4373 11.5003 45.2188 12.7188C44.0003 13.9373 42.3482 14.6229 40.625 14.625ZM40.625 4.875C39.9822 4.875 39.3539 5.06561 38.8194 5.42273C38.2849 5.77984 37.8684 6.28742 37.6224 6.88128C37.3764 7.47514 37.312 8.12861 37.4374 8.75905C37.5629 9.38948 37.8724 9.96858 38.3269 10.4231C38.7814 10.8776 39.3605 11.1872 39.991 11.3126C40.6214 11.438 41.2749 11.3736 41.8687 11.1276C42.4626 10.8816 42.9702 10.4651 43.3273 9.93061C43.6844 9.39615 43.875 8.76779 43.875 8.125C43.8741 7.26331 43.5315 6.43716 42.9221 5.82786C42.3128 5.21855 41.4867 4.87586 40.625 4.875Z" fill="#FF5C00"/>
<path id="Vector_2" d="M30.0625 24.375C28.9376 24.375 27.838 24.0414 26.9027 23.4165C25.9674 22.7915 25.2384 21.9033 24.8079 20.864C24.3775 19.8248 24.2648 18.6812 24.4843 17.5779C24.7037 16.4747 25.2454 15.4612 26.0408 14.6658C26.8362 13.8704 27.8497 13.3287 28.9529 13.1093C30.0562 12.8898 31.1998 13.0025 32.239 13.4329C33.2783 13.8634 34.1665 14.5924 34.7915 15.5277C35.4164 16.463 35.75 17.5626 35.75 18.6875C35.7483 20.1954 35.1485 21.641 34.0823 22.7073C33.016 23.7735 31.5704 24.3733 30.0625 24.375ZM30.0625 16.25C29.5804 16.25 29.1091 16.393 28.7083 16.6608C28.3075 16.9286 27.995 17.3093 27.8105 17.7547C27.6261 18.2001 27.5778 18.6902 27.6718 19.163C27.7659 19.6359 27.998 20.0702 28.3389 20.4111C28.6798 20.752 29.1141 20.9841 29.587 21.0782C30.0598 21.1722 30.5499 21.1239 30.9953 20.9395C31.4407 20.755 31.8214 20.4426 32.0892 20.0417C32.357 19.6409 32.5 19.1696 32.5 18.6875C32.4991 18.0413 32.2421 17.4218 31.7851 16.9649C31.3282 16.5079 30.7087 16.2509 30.0625 16.25Z" fill="#FF5C00"/>
</g>
</svg>
