<svg width="26" height="26" viewBox="0 0 52 52" fill="#FF5C00" xmlns="http://www.w3.org/2000/svg">
<g id="Fork">
<path id="Vector" d="M36.4867 25.1983C37.3545 25.2091 38.2158 25.0459 39.0196 24.7184C39.8233 24.391 40.5534 23.9058 41.1667 23.2917L47.2983 17.16C47.7019 16.754 47.9284 16.2049 47.9284 15.6325C47.9284 15.0601 47.7019 14.5109 47.2983 14.105C47.0969 13.9019 46.8573 13.7407 46.5933 13.6307C46.3292 13.5207 46.046 13.4641 45.76 13.4641C45.474 13.4641 45.1908 13.5207 44.9268 13.6307C44.6627 13.7407 44.4231 13.9019 44.2217 14.105L38.025 20.215C37.8236 20.4181 37.584 20.5793 37.3199 20.6893C37.0559 20.7993 36.7727 20.8559 36.4867 20.8559C36.2006 20.8559 35.9174 20.7993 35.6534 20.6893C35.3894 20.5793 35.1498 20.4181 34.9483 20.215L42.6183 12.5667C42.8204 12.3646 42.9806 12.1248 43.0899 11.8609C43.1993 11.5969 43.2555 11.314 43.2555 11.0283C43.2555 10.7426 43.1993 10.4597 43.0899 10.1958C42.9806 9.93184 42.8204 9.69201 42.6183 9.48999C42.4163 9.28798 42.1765 9.12773 41.9125 9.0184C41.6486 8.90907 41.3657 8.85279 41.08 8.85279C40.7943 8.85279 40.5114 8.90907 40.2475 9.0184C39.9835 9.12773 39.7437 9.28798 39.5417 9.48999L31.8933 17.16C31.4898 16.754 31.2633 16.2049 31.2633 15.6325C31.2633 15.0601 31.4898 14.5109 31.8933 14.105L38.025 7.97333C38.227 7.77131 38.3873 7.53148 38.4966 7.26753C38.6059 7.00358 38.6622 6.72069 38.6622 6.43499C38.6622 6.1493 38.6059 5.8664 38.4966 5.60245C38.3873 5.3385 38.227 5.09868 38.025 4.89666C37.823 4.69464 37.5832 4.53439 37.3192 4.42506C37.0553 4.31573 36.7724 4.25946 36.4867 4.25946C36.201 4.25946 35.9181 4.31573 35.6541 4.42506C35.3902 4.53439 35.1504 4.69464 34.9483 4.89666L28.8167 11.0283C27.5994 12.2471 26.9157 13.8992 26.9157 15.6217C26.9157 17.3442 27.5994 18.9962 28.8167 20.215L26 23.01L8.08167 5.02666L7.865 4.89666C7.75424 4.80003 7.6302 4.71977 7.49667 4.65833L7.10667 4.50666L6.84667 4.33333H6.695H6.26167C6.13249 4.31267 6.00085 4.31267 5.87167 4.33333C5.7405 4.38107 5.61656 4.44669 5.50334 4.52833L5.15667 4.74499H5.005L4.875 4.96166C4.7833 5.07606 4.70345 5.19947 4.63667 5.32999C4.57322 5.46211 4.52243 5.59995 4.485 5.74166C4.485 5.74166 4.485 5.89333 4.485 5.97999C3.95923 9.64472 4.29445 13.3815 5.46407 16.8942C6.6337 20.4068 8.60557 23.5987 11.2233 26.2167L16.9433 31.915L5.22167 43.615C5.01859 43.8164 4.8574 44.056 4.74741 44.3201C4.63741 44.5841 4.58077 44.8673 4.58077 45.1533C4.58077 45.4394 4.63741 45.7225 4.74741 45.9866C4.8574 46.2506 5.01859 46.4902 5.22167 46.6917C5.42412 46.8925 5.66422 47.0513 5.92821 47.1592C6.19219 47.267 6.47486 47.3216 6.76 47.32C7.04515 47.3216 7.32782 47.267 7.5918 47.1592C7.85578 47.0513 8.09588 46.8925 8.29834 46.6917L21.45 33.735L27.5817 27.6033L31.915 23.27C33.124 24.492 34.7678 25.1853 36.4867 25.1983ZM19.9117 29.1417L14.2133 23.4217C11.09 20.2556 9.13434 16.1227 8.66667 11.7L22.9883 26L19.9117 29.1417ZM33.4317 30.3767C33.0237 29.9658 32.4692 29.7338 31.8902 29.7318C31.3111 29.7298 30.755 29.9578 30.3442 30.3658C29.9333 30.7738 29.7013 31.3283 29.6993 31.9073C29.6973 32.4864 29.9253 33.0425 30.3333 33.4533L43.9833 47.1033C44.3972 47.4799 44.9407 47.6818 45.5 47.6667C45.7852 47.6683 46.0678 47.6137 46.3318 47.5058C46.5958 47.398 46.8359 47.2391 47.0383 47.0383C47.2414 46.8369 47.4026 46.5973 47.5126 46.3332C47.6226 46.0692 47.6792 45.786 47.6792 45.5C47.6792 45.214 47.6226 44.9308 47.5126 44.6667C47.4026 44.4027 47.2414 44.1631 47.0383 43.9617L33.4317 30.3767Z" fill="#FF5C00"/>
</g>
</svg>
