<svg width="26" height="26" viewBox="0 0 52 52" fill="#FF5C00" xmlns="http://www.w3.org/2000/svg">
<g id="Location 1">
<path id="Vector" d="M26 25.4583C27.0472 25.4583 27.941 25.0882 28.6813 24.3479C29.4215 23.6076 29.7917 22.7139 29.7917 21.6666C29.7917 20.6194 29.4215 19.7257 28.6813 18.9854C27.941 18.2451 27.0472 17.875 26 17.875C24.9528 17.875 24.059 18.2451 23.3188 18.9854C22.5785 19.7257 22.2083 20.6194 22.2083 21.6666C22.2083 22.7139 22.5785 23.6076 23.3188 24.3479C24.059 25.0882 24.9528 25.4583 26 25.4583ZM26 43.3875C30.8028 39.018 34.3507 35.0548 36.6438 31.4979C38.9368 27.941 40.0833 24.8083 40.0833 22.1C40.0833 17.8389 38.7201 14.3541 35.9938 11.6458C33.2674 8.93748 29.9361 7.58331 26 7.58331C22.0639 7.58331 18.7326 8.93748 16.0063 11.6458C13.2799 14.3541 11.9167 17.8389 11.9167 22.1C11.9167 24.8083 13.0903 27.941 15.4375 31.4979C17.7847 35.0548 21.3056 39.018 26 43.3875ZM26 47.6666C20.1861 42.7194 15.8438 38.1243 12.9729 33.8812C10.1021 29.6382 8.66667 25.7111 8.66667 22.1C8.66667 16.6833 10.409 12.368 13.8938 9.15415C17.3785 5.94026 21.4139 4.33331 26 4.33331C30.5861 4.33331 34.6215 5.94026 38.1063 9.15415C41.591 12.368 43.3333 16.6833 43.3333 22.1C43.3333 25.7111 41.8979 29.6382 39.0271 33.8812C36.1563 38.1243 31.8139 42.7194 26 47.6666Z" fill="#FF5C00"/>
</g>
</svg>
