<svg width="26" height="26" viewBox="0 0 52 52" fill="#FF5C00" xmlns="http://www.w3.org/2000/svg">
<g id="uil:map">
<path id="Vector" d="M46.1933 10.9416L33.1933 6.60831H33.0417C32.9408 6.59817 32.8392 6.59817 32.7383 6.60831H31.8067L19.5 10.8333L7.19334 6.60831C6.8675 6.50087 6.52081 6.47234 6.1818 6.52508C5.84278 6.57781 5.52114 6.7103 5.24334 6.91164C4.96331 7.11101 4.73474 7.37415 4.57651 7.67931C4.41828 7.98447 4.33492 8.3229 4.33334 8.66664V39C4.33216 39.4542 4.47378 39.8973 4.73816 40.2667C5.00254 40.636 5.37632 40.913 5.80667 41.0583L18.8067 45.3916C19.2431 45.534 19.7135 45.534 20.15 45.3916L32.5 41.275L44.8067 45.5C45.0367 45.5312 45.2699 45.5312 45.5 45.5C45.953 45.5064 46.3952 45.3615 46.7567 45.0883C47.0367 44.8889 47.2653 44.6258 47.4235 44.3206C47.5817 44.0155 47.6651 43.6771 47.6667 43.3333V13C47.6678 12.5457 47.5262 12.1026 47.2618 11.7333C46.9975 11.3639 46.6237 11.087 46.1933 10.9416ZM17.3333 40.3216L8.66667 37.44V11.6783L17.3333 14.56V40.3216ZM30.3333 37.44L21.6667 40.3216V14.56L30.3333 11.6783V37.44ZM43.3333 40.3216L34.6667 37.44V11.6783L43.3333 14.56V40.3216Z" fill="#FF5C00"/>
</g>
</svg>
